<svg width="72" height="72" viewBox="0 0 72 72" fill="none" xmlns="http://www.w3.org/2000/svg">
<path d="M54 30.093V10.824L35.892 0L18 10.707V30.204L0 39.876V61.524L18.408 72L36 61.821L53.592 72L72 61.524V39.993L54 30.093V30.093ZM50.571 30.201L37.608 37.353V22.485L50.571 14.868V30.201ZM35.886 4.071L48.702 11.859L35.898 19.386L23.37 11.724L35.886 4.071V4.071ZM5.37 40.893L19.704 33.303L32.415 40.554L18.411 48.555L5.37 40.893ZM20.121 51.654L34.287 43.563V58.731L20.121 67.002V51.654V51.654ZM39.657 40.416L52.398 33.246L66.705 41.028L53.604 48.555L39.657 40.416V40.416ZM68.571 59.385L55.308 67.002V51.654L68.571 44.04V59.385Z" fill="black"/>
</svg>
