<svg width="236" height="231" viewBox="0 0 236 231" fill="none" xmlns="http://www.w3.org/2000/svg">
<path d="M83.9322 0.199692C83.599 0.338501 83.2103 0.699448 83.0437 1.00485C82.8494 1.3658 82.7383 5.30836 82.7383 12.5549V23.5497L83.4324 24.216L84.0988 24.9101H93.2611H102.423L102.507 29.7411L102.59 34.5722L99.0361 35.2941C94.6493 36.2103 89.9571 37.5985 85.7924 39.2644C81.9609 40.7914 75.2974 44.1232 72.6043 45.8446C71.5492 46.5387 70.5497 47.094 70.3831 47.094C70.1055 47.094 67.1902 42.5961 67.1902 42.1797C67.1902 42.0408 68.6339 41.0413 70.4109 39.903C73.8814 37.7096 74.4367 37.071 73.8814 35.7938C73.3817 34.711 68.8838 27.6588 68.2175 26.9092C67.912 26.576 67.3845 26.2983 67.0514 26.2983C66.4128 26.2983 41.2581 42.1241 40.4807 43.0126C40.203 43.318 39.9809 43.8178 39.9809 44.0954C39.9809 44.6507 44.8675 52.6191 45.8948 53.7019C46.2002 54.0629 46.7277 54.3405 47.0609 54.3405C47.3941 54.3405 49.1432 53.3965 50.9479 52.2582C52.7804 51.1198 54.3352 50.1758 54.4185 50.1758C54.5018 50.1758 55.4735 51.6474 56.5841 53.3965L58.6109 56.6172L55.9455 59.3937C45.1451 70.6383 37.7042 84.9648 34.5668 100.568C32.6789 109.87 32.5678 123.363 34.2892 131.165L34.428 131.804H25.2657C20.2403 131.804 16.1034 131.748 16.1034 131.692C16.1034 131.637 15.9368 129.916 15.7147 127.861C15.4926 125.834 15.2427 122.641 15.1317 120.753L14.9373 117.366H21.4897H28.0422V116.255V115.145H19.6573C15.0206 115.145 8.71806 115.062 5.60844 114.95L0 114.784V115.894V117.005L6.35808 117.227L12.6884 117.422L12.8827 121.225C13.0771 125.001 13.4936 129.582 13.7712 131.026L13.9378 131.804H11.9388H9.96747L12.6329 135.718C15.2983 139.578 15.3538 139.689 16.2423 143.159C17.4639 147.74 19.3796 153.293 21.2954 157.736C22.3505 160.151 22.7669 161.428 22.6003 161.678C22.4615 161.9 19.574 166.176 16.159 171.229L9.96747 180.391L22.406 180.419H34.8445L36.5104 182.529C37.4266 183.695 39.8143 186.333 41.7856 188.388C60.2768 207.601 84.9039 218.707 111.724 219.984L115.778 220.178V225.287V230.368H116.889H117.999V220.567V210.766L120.165 210.266C125.607 209.017 130.077 205.019 131.826 199.827L132.326 198.383L136.463 197.328C148.013 194.413 158.813 189.11 167.559 182.085L169.502 180.53L197.767 180.391L226.003 180.253L218.646 169.369C214.592 163.4 211.288 158.402 211.288 158.263C211.288 158.124 212.76 156.486 214.537 154.598L217.785 151.155L221.311 154.876C224.393 158.124 224.893 158.541 225.281 158.208C225.531 157.985 225.726 157.402 225.726 156.792C225.726 155.848 225.42 155.459 221.95 151.85C219.867 149.684 217.952 147.907 217.674 147.907C217.424 147.907 215.786 149.406 214.065 151.294C212.315 153.182 210.677 154.959 210.372 155.265C209.789 155.875 211.843 152.71 215.925 146.741L218.535 142.937L221.672 146.186C224.449 149.018 224.893 149.378 225.281 149.045C225.531 148.823 225.726 148.268 225.726 147.74C225.726 146.907 225.337 146.38 222.949 143.853C221.422 142.215 220.173 140.799 220.173 140.66C220.173 140.522 220.561 139.855 221.061 139.161L221.95 137.912L223.449 139.355C224.865 140.771 224.948 140.799 225.337 140.299C226.059 139.328 225.809 138.273 224.56 136.912L223.421 135.663L224.726 133.803L226.003 131.942L222.894 131.859L219.756 131.776L218.757 130.804L217.729 129.804L216.619 130.804L215.536 131.804H206.79H198.072L198.627 128.389C199.46 123.169 199.433 110.147 198.572 104.678C195.684 86.1587 187.383 69.9442 174.195 57.0892C162.395 45.6225 147.957 38.0983 131.604 34.9053L130.077 34.6277L130.16 29.7689L130.243 24.9101H139.406H148.568L149.234 24.216C149.734 23.7162 149.928 23.2442 149.928 22.4113C149.928 21.8005 149.956 21.3007 150.012 21.3007C150.04 21.3007 151.067 21.6894 152.261 22.1337C157.036 23.9939 164.449 27.6866 169.725 30.9073C171.085 31.7402 172.307 32.351 172.446 32.2399C172.584 32.1567 172.89 31.7402 173.084 31.3237L173.501 30.5463L169.697 28.3251C167.615 27.0757 163.894 25.0767 161.451 23.8551C157.258 21.7727 150.956 19.0796 150.262 19.0796C150.012 19.0796 149.928 16.7196 149.928 10.2227C149.928 1.92108 149.901 1.33803 149.401 0.727203L148.873 0.0608673L116.694 0.00534058C98.5086 -0.0224304 84.2931 0.0608673 83.9322 0.199692ZM138.545 12.4161V21.3007H112.446H86.3477V12.4161V3.53143H112.446H138.545V12.4161ZM141.599 12.4161V21.3007H140.766H139.933V12.4161V3.53143H140.766H141.599V12.4161ZM146.319 12.4161V21.3007H145.07H143.82V12.4161V3.53143H145.07H146.319V12.4161ZM126.329 30.3242V34.0724L123.913 33.8781C120.831 33.6004 111.641 33.6004 108.643 33.8503L106.338 34.0446V30.3242V26.576H116.333H126.329V30.3242ZM68.1064 33.2395C68.9671 34.5999 69.689 35.8216 69.689 35.9326C69.689 36.1825 48.4769 49.7038 47.8938 49.8427C47.5884 49.9259 44.4233 45.2337 44.4233 44.734C44.451 44.4563 65.7742 30.824 66.2462 30.7684C66.4128 30.7407 67.2457 31.8512 68.1064 33.2395ZM126.995 37.7929C137.185 39.2921 146.347 42.3462 154.76 47.0384C178.109 60.06 193.13 83.2434 195.49 109.897C196.018 115.867 195.49 126.945 194.491 131.165L194.352 131.804H186.883H179.442L179.914 129.36C181.858 119.837 181.58 110.008 179.053 100.235C173.889 80.0227 158.369 62.9475 138.656 55.7565C131.659 53.2022 126.079 52.1471 118.249 51.925C114.89 51.8139 111.586 51.8972 109.642 52.0916C94.2606 53.6742 80.3228 60.4487 69.5502 71.5823C56.8062 84.7704 50.3649 102.096 51.3922 120.503C51.5865 123.891 52.475 130.193 52.9192 131.359C53.0858 131.748 52.3084 131.804 45.5616 131.804C41.4247 131.804 38.0374 131.776 38.0374 131.72C38.0374 131.692 37.8708 130.665 37.6487 129.444C36.0384 120.337 36.4548 108.509 38.7038 98.5139C42.5075 81.7719 52.6138 65.6962 66.2462 54.7292C78.7125 44.7062 93.5942 38.7646 109.948 37.2931C112.78 37.0432 124.08 37.3764 126.995 37.7929ZM66.1351 47.4827L67.3012 49.3984L66.4683 50.0092C66.0241 50.3147 64.6914 51.3975 63.4975 52.3415C62.3036 53.3132 61.2763 54.0629 61.2486 54.0073C60.8876 53.6186 58.0279 49.0097 58.0279 48.8431C58.0279 48.7321 59.4439 47.7603 61.1653 46.6497C64.6914 44.4008 64.2194 44.3175 66.1351 47.4827ZM124.441 55.8953C150.817 59.2826 172.14 79.9116 176.721 106.482C177.971 113.729 177.637 123.891 175.972 130.61C175.666 131.915 175.055 132.164 174.334 131.304C173.695 130.554 168.142 129.36 167.559 129.86C167.031 130.304 167.031 130.804 167.587 131.359C167.975 131.776 167.531 131.804 162.728 131.804H157.453L157.869 130.637C159.007 127.389 160.174 121.003 160.201 117.977V116.811H159.091C158.313 116.811 157.98 116.922 157.98 117.199C157.98 117.422 157.841 118.865 157.675 120.448C157.342 123.891 156.87 126.306 155.898 129.471L155.176 131.804H109.781C67.912 131.804 64.4137 131.776 64.8302 131.359C65.3577 130.832 65.2744 130.165 64.6358 129.777C64.3027 129.555 63.4697 129.666 61.3319 130.276C59.777 130.721 58.3333 131.248 58.1389 131.443C57.9446 131.637 57.5281 131.804 57.2227 131.804C56.6397 131.804 56.5841 131.609 55.6124 126.528C55.0571 123.585 54.835 113.451 55.2237 109.842C56.834 95.9595 62.9422 83.2711 72.7153 73.4703C76.408 69.7776 78.7125 67.9174 82.9327 65.1409C90.2625 60.3654 99.2027 57.0337 107.726 55.8953C111.808 55.34 120.22 55.34 124.441 55.8953ZM46.228 137.134C46.3112 137.329 46.4778 142.659 46.5889 148.99L46.7832 160.512L50.8091 148.795L54.8072 137.079H57.3615C59.4439 137.079 59.9436 137.162 60.0825 137.523C60.1657 137.773 60.249 142.215 60.2768 147.435C60.3046 152.655 60.3879 157.625 60.4712 158.457L60.6655 159.985L64.497 148.74C66.6071 142.548 68.4396 137.384 68.5506 137.273C68.6895 137.134 69.4113 137.079 70.161 137.134L71.577 137.218L66.0796 151.933L60.5822 166.648L57.5004 166.731L54.4185 166.815L54.3907 161.178C54.363 158.069 54.2797 153.765 54.1686 151.572L54.002 147.602L50.4204 157.18L46.8388 166.787H43.868H40.8972L40.7028 159.346C40.6195 155.265 40.4529 149.212 40.3419 145.908L40.1753 139.883L39.1758 140.411C37.7875 141.105 36.2327 142.743 35.4831 144.27C34.9555 145.353 34.8445 145.991 34.8445 148.407C34.8445 151.183 34.8167 151.239 34.2059 151.239C33.1786 151.239 31.7349 150.489 31.2073 149.712C30.5132 148.657 30.5688 145.88 31.3184 144.436C32.5678 142.021 35.3165 139.605 38.3706 138.245C40.9249 137.134 45.9503 136.412 46.228 137.134ZM109.67 145.686C108.92 149.24 108.337 152.21 108.393 152.266C108.421 152.322 110.059 151.1 112.002 149.573L115.528 146.769L117.666 146.852L119.804 146.935L116.222 149.406L112.641 151.877L113.918 152.21C115.5 152.599 116.25 153.238 116.916 154.709C117.555 156.098 117.555 156.903 116.972 159.762C116.444 162.317 116.639 162.9 117.972 162.9C119.11 162.9 119.832 162.206 120.193 160.79C120.387 159.985 120.859 159.179 121.359 158.707C122.358 157.791 124.246 154.043 125.607 150.267C126.162 148.74 126.745 147.213 126.884 146.907C127.078 146.38 127.495 146.269 129.91 145.963C131.465 145.769 132.798 145.686 132.909 145.797C133.103 145.963 133.353 149.49 133.77 157.597L133.964 161.317L135.213 160.373L136.435 159.429L137.49 154.432C138.073 151.683 138.739 148.518 138.989 147.407L139.406 145.408H142.432H145.431L145.181 146.435C144.848 147.963 144.848 147.963 145.986 147.379C148.179 146.269 150.956 146.408 152.344 147.685C153.621 148.851 154.093 150.295 154.093 153.182C154.093 158.957 152.094 163.761 148.818 165.815C146.736 167.12 142.765 167.425 141.627 166.398C140.988 165.815 141.099 165.454 139.905 171.118L139.017 175.311L136.074 176.005C134.464 176.393 133.048 176.671 132.964 176.615C132.881 176.56 133.464 173.423 134.269 169.647C135.074 165.871 135.713 162.678 135.685 162.539C135.658 162.428 134.686 163.039 133.547 163.872C130.688 165.982 128.827 166.815 126.773 166.981C124.552 167.176 122.941 166.704 121.636 165.537L120.581 164.566L119.915 165.315C118.471 166.87 115.723 167.481 113.529 166.759C110.919 165.871 110.197 163.594 111.086 159.179C111.502 156.986 111.252 155.875 110.253 155.737C109.476 155.626 108.198 156.125 107.615 156.764C107.393 157.014 106.755 159.346 106.199 161.928C105.672 164.51 105.172 166.648 105.117 166.704C105.061 166.759 103.728 166.759 102.118 166.731L99.2027 166.648L101.785 154.57C103.201 147.935 104.506 141.854 104.672 141.077L104.978 139.661L107.81 139.244C109.365 139.022 110.725 138.939 110.864 139.022C110.975 139.106 110.447 142.104 109.67 145.686ZM23.1556 151.183L26.4318 155.986L25.4045 157.541C24.8493 158.374 24.3495 159.013 24.294 158.957C23.7942 158.43 19.4352 146.963 19.4352 146.158C19.4352 145.714 19.574 145.908 23.1556 151.183ZM81.1835 146.907C82.5995 147.491 83.5713 148.99 83.9322 151.1L84.2376 152.905L85.2371 152.738C87.2917 152.349 87.375 152.266 87.8747 149.934C88.1246 148.74 88.4023 147.546 88.4856 147.268C88.5966 146.852 88.9853 146.796 91.5397 146.796H94.4827L94.2884 147.935L94.094 149.073L95.0102 148.323C97.5646 146.158 100.258 146.324 101.229 148.657C102.035 150.572 100.674 152.905 98.7029 152.905C97.7034 152.905 97.037 152.322 96.7594 151.155C96.5095 150.239 95.7599 150.156 94.4827 150.961C93.9829 151.266 93.5665 151.544 93.5665 151.572C93.5387 151.627 92.8168 155.015 91.9561 159.152L90.3458 166.648L87.375 166.731C85.7369 166.759 84.4042 166.704 84.4042 166.592C84.4042 166.454 84.9595 163.733 85.6536 160.54C87.0696 153.932 87.0141 154.265 86.5698 154.432C86.3755 154.487 85.6814 154.682 85.0428 154.848C84.0988 155.07 83.8489 155.265 83.8489 155.737C83.8489 156.958 82.9327 160.04 82.072 161.65C80.2673 165.121 77.6574 166.87 74.2701 166.87C71.7158 166.87 69.9666 166.093 68.9116 164.482C68.273 163.511 68.1619 163.011 68.0786 160.79C67.8288 154.598 71.1327 148.629 75.7139 146.935C77.1021 146.435 80.0174 146.408 81.1835 146.907ZM167.281 147.352L167.892 147.935L168.059 147.379C168.198 146.824 168.42 146.796 171.141 146.796C172.751 146.796 174.084 146.88 174.084 147.019C174.084 147.13 173.39 150.517 172.557 154.543C171.113 161.345 171.03 161.9 171.446 162.511C172.085 163.483 173.112 163.372 174.25 162.233C175.055 161.428 175.194 161.095 175.194 159.929C175.194 156.542 177.138 151.6 179.359 149.351C181.164 147.518 182.885 146.713 185.245 146.574C188.382 146.38 190.104 147.379 190.381 149.517C190.742 152.099 189.243 153.765 187.272 153.016C186.911 152.877 186.855 152.571 187.022 151.211C187.216 149.545 186.939 148.74 186.133 148.74C185.939 148.74 185.328 149.184 184.801 149.739C182.524 152.072 180.553 159.818 181.608 162.15C182.524 164.177 186.244 163.788 189.021 161.345C190.27 160.234 190.465 159.957 190.465 159.041C190.465 156.375 192.436 151.544 194.38 149.434C196.045 147.629 198.489 146.519 200.849 146.519C204.319 146.519 205.624 147.629 205.569 150.545C205.541 152.655 204.986 153.932 203.375 155.626C202.015 157.097 199.516 158.402 197.656 158.652L196.573 158.818V160.123C196.573 161.984 197.323 162.9 198.877 162.9C200.016 162.9 201.654 162.261 202.903 161.345C203.486 160.929 203.514 160.929 203.514 161.401C203.514 162.4 202.181 164.76 201.154 165.593C199.488 166.953 196.684 167.425 194.213 166.759C192.908 166.398 190.742 164.371 190.742 163.511C190.742 162.539 190.326 162.594 189.188 163.761C185.856 167.176 180.275 168.092 177.193 165.76C176.693 165.371 176.138 164.788 175.972 164.427C175.694 163.788 175.694 163.788 174.611 164.871C173.195 166.287 172.085 166.815 170.197 166.981C168.142 167.176 166.726 166.537 166.087 165.149C165.838 164.593 165.588 164.094 165.56 164.038C165.504 163.955 165.005 164.371 164.422 164.927C161.728 167.536 158.063 167.759 155.953 165.426C154.787 164.149 154.371 162.844 154.371 160.54C154.399 155.459 157.147 149.795 160.646 147.629C162.589 146.408 166.143 146.269 167.281 147.352ZM65.6354 182.613C75.1308 189.942 86.1811 195.134 98.0643 197.855L101.424 198.633L101.757 199.716C103.062 204.102 107.282 208.378 111.697 209.794C112.641 210.1 113.946 210.433 114.612 210.516L115.778 210.71V214.32V217.957L111.836 217.763C97.2314 217.041 83.7656 213.542 71.0772 207.184C62.026 202.631 54.8905 197.689 47.1997 190.637C44.34 187.999 39.2868 182.613 38.1485 181.002L37.732 180.391H50.2538H62.7756L65.6354 182.613ZM105.644 180.808C106.866 181.03 108.032 181.197 108.226 181.224C108.448 181.224 108.004 181.696 107.254 182.307C103.589 185.195 101.091 189.804 101.063 193.635C101.063 194.301 100.98 194.829 100.869 194.829C100.73 194.829 99.3415 194.524 97.7312 194.135C91.3453 192.58 83.8211 189.693 78.2127 186.611C75.2419 184.973 69.2725 181.141 68.9949 180.669C68.8838 180.475 74.8254 180.391 86.1256 180.391C99.9801 180.391 103.867 180.475 105.644 180.808ZM163.672 180.614C162.978 181.224 159.535 183.529 157.175 184.945C151.789 188.221 145.014 191.192 138.934 192.969C135.297 194.052 132.964 194.607 132.853 194.496C132.826 194.44 132.631 193.552 132.465 192.497C131.77 188.471 129.466 184.556 126.579 182.529C125.69 181.891 124.968 181.28 124.968 181.197C124.94 181.113 125.718 180.919 126.69 180.752C128.8 180.419 164.033 180.28 163.672 180.614ZM122.497 182.557C127.384 184.917 130.243 189.443 130.243 194.773C130.243 198.883 128.938 201.937 125.94 204.769C117.416 212.82 103.284 206.629 103.284 194.829C103.284 190.276 105.533 186.083 109.253 183.584C111.697 181.974 113.029 181.641 117.083 181.641C120.498 181.669 120.72 181.696 122.497 182.557Z" fill="black"/>
<path d="M115.278 56.6172C114.862 57.0336 114.834 62.0313 115.223 63.0586C115.556 63.947 116.722 64.0581 117.166 63.2251C117.527 62.5588 117.25 57.1725 116.805 56.6172C116.472 56.2007 115.723 56.1729 115.278 56.6172Z" fill="black"/>
<path d="M130.826 58.4775C130.465 58.6996 129.133 63.4195 129.105 64.5024C129.105 65.2798 129.771 65.8073 130.465 65.5852C131.076 65.3908 131.576 64.0581 132.215 60.9485C132.465 59.7824 132.465 59.1716 132.27 58.8384C131.909 58.2831 131.326 58.1443 130.826 58.4775Z" fill="black"/>
<path d="M99.7855 58.9217C99.5911 59.3937 99.7022 59.9489 100.674 63.1419C101.396 65.5019 102.007 66.1682 102.867 65.4463C103.45 64.9466 103.395 64.3357 102.451 61.2539C101.618 58.5885 101.562 58.5052 100.757 58.5052C100.285 58.5052 99.8688 58.6718 99.7855 58.9217Z" fill="black"/>
<path d="M85.5147 64.8911C85.2648 65.3631 85.4592 65.8906 86.8474 68.1673C88.2912 70.5828 88.5411 70.8605 89.2907 70.8605C90.6234 70.8605 90.4846 69.9165 88.7076 66.9457C87.4305 64.8078 87.0418 64.3358 86.4865 64.3358C86.0978 64.3358 85.6813 64.5579 85.5147 64.8911Z" fill="black"/>
<path d="M143.543 66.9457C141.932 69.972 141.821 70.8605 143.126 70.8605C143.904 70.8605 144.07 70.6384 145.431 68.2228C147.097 65.2243 147.152 64.5302 145.847 64.3913C145.014 64.308 144.931 64.3913 143.543 66.9457Z" fill="black"/>
<path d="M112.141 72.9428C95.0099 74.5253 79.9616 86.4363 74.5475 102.762C74.0477 104.289 73.4092 106.566 73.1593 107.76C72.604 110.453 72.0765 115.839 72.2986 116.394C72.3819 116.644 72.7983 116.811 73.3814 116.811C74.2421 116.811 74.3532 116.7 74.5197 115.95C74.603 115.478 74.6863 114.423 74.6863 113.646C74.6863 107.676 78.0181 98.4306 82.3771 92.2947C84.4317 89.3794 88.9018 84.9093 91.817 82.8547C97.953 78.4957 107.199 75.1639 113.168 75.1639C113.945 75.1639 115 75.0806 115.472 74.9973C116.305 74.8308 116.361 74.7475 116.278 73.8035C116.166 72.6374 116 72.5818 112.141 72.9428Z" fill="black"/>
<path d="M155.454 75.7748C154.26 77.0519 153.26 78.2736 153.26 78.4957C153.26 79.051 153.816 79.6063 154.371 79.6063C155.037 79.6063 159.091 75.386 159.091 74.6919C159.091 74.1366 158.397 73.4981 157.814 73.4981C157.703 73.4981 156.648 74.5253 155.454 75.7748Z" fill="black"/>
<path d="M73.2982 74.3032C72.8817 75.1083 73.1039 75.4415 75.5194 77.6349C77.7405 79.634 78.1848 79.8839 78.7956 79.273C79.4342 78.6344 79.101 78.0236 76.9354 75.9135C74.6864 73.7201 73.8257 73.3314 73.2982 74.3032Z" fill="black"/>
<path d="M146.569 82.7714C135.852 87.769 135.547 87.9356 135.935 89.4627C136.13 90.2678 136.657 90.6288 138.157 90.9342L139.184 91.1563L129.411 100.457L119.638 109.786L118.61 109.425C116.778 108.759 114.696 108.926 112.752 109.897C110.947 110.814 110.031 111.758 109.143 113.757C108.449 115.284 108.393 117.782 108.976 119.226L109.42 120.254L107.282 122.391L105.145 124.557L106.172 125.806C106.755 126.501 107.31 127.084 107.393 127.084C107.505 127.084 108.476 126.195 109.531 125.14C110.586 124.057 111.614 123.197 111.78 123.197C111.947 123.197 112.696 123.446 113.418 123.78C115.056 124.502 117.833 124.418 119.527 123.613C120.915 122.919 122.442 121.42 123.136 120.004C123.969 118.338 123.913 114.867 123.053 113.229C122.692 112.563 122.442 112.007 122.497 111.98C122.553 111.952 126.884 107.815 132.104 102.79C141.96 93.4052 142.127 93.2664 142.155 95.2099C142.155 96.737 144.32 97.7643 145.237 96.6537C145.903 95.8485 151.595 83.7154 151.595 83.0768C151.595 82.466 150.984 81.7719 150.179 81.4665C149.929 81.3832 148.318 81.9662 146.569 82.7714ZM118.222 113.201C119.665 114.09 120.276 115.311 120.137 117.033C120.054 118.31 119.888 118.671 118.999 119.532C118.055 120.503 117.888 120.559 116.223 120.559C114.696 120.559 114.335 120.448 113.696 119.865C112.669 118.893 112.169 117.866 112.169 116.616C112.169 114.506 114.057 112.646 116.195 112.646C116.806 112.646 117.694 112.896 118.222 113.201Z" fill="black"/>
<path d="M64.0258 86.4363C63.1651 87.297 63.6093 87.7967 66.6912 89.4626C69.4954 90.9619 70.3838 91.0174 70.3838 89.7403C70.3838 88.9906 70.1617 88.7963 67.7462 87.4636C66.3025 86.6584 64.9698 85.9921 64.7754 85.9921C64.6088 85.9921 64.2479 86.1864 64.0258 86.4363Z" fill="black"/>
<path d="M164.283 87.5469C162.118 88.9352 161.84 89.185 161.923 89.8236C162.062 91.073 163.006 90.9342 165.921 89.185C168.309 87.769 168.559 87.5469 168.476 86.8806C168.337 85.5756 167.087 85.77 164.283 87.5469Z" fill="black"/>
<path d="M172.14 100.43C171.751 100.568 170.557 100.929 169.447 101.263C167.365 101.846 166.726 102.512 167.42 103.345C167.92 103.928 168.531 103.872 171.585 102.928C174.389 102.068 174.861 101.651 174.361 100.679C174.056 100.124 173.306 100.041 172.14 100.43Z" fill="black"/>
<path d="M58.028 100.846C57.5005 101.485 57.9725 102.318 58.972 102.623C63.692 103.9 64.9969 103.984 65.1635 102.901C65.3023 102.123 64.7192 101.762 62.1649 101.124C59.1108 100.319 58.5 100.291 58.028 100.846Z" fill="black"/>
<path d="M170.613 115.672C169.363 115.811 169.224 115.922 169.141 116.589C169.002 117.755 169.808 117.977 173.223 117.727C175.527 117.56 176.166 117.394 176.415 117.005C176.638 116.672 176.638 116.394 176.415 116.033C176.166 115.672 175.694 115.561 174.056 115.534C172.917 115.506 171.39 115.589 170.613 115.672Z" fill="black"/>
<path d="M56.1398 116.033C55.9732 116.2 55.8066 116.561 55.8066 116.811C55.8066 117.727 56.4175 117.921 59.416 117.921C62.6923 117.921 63.4141 117.644 63.2475 116.505C63.1642 115.839 63.1365 115.839 59.8325 115.756C57.4725 115.7 56.3897 115.784 56.1398 116.033Z" fill="black"/>
<path d="M144.931 150.6C144.181 151.322 144.014 151.822 142.987 156.653C142.376 159.54 141.876 162.15 141.876 162.428C141.876 162.706 142.154 163.011 142.515 163.15C144.903 164.066 147.318 161.012 148.179 156.014C148.873 151.933 148.346 149.851 146.569 149.851C146.097 149.851 145.43 150.156 144.931 150.6Z" fill="black"/>
<path d="M125.718 155.181C124.552 157.93 124.468 158.291 124.857 158.68C125.135 158.957 125.218 159.374 125.107 159.957C124.857 161.095 124.302 161.595 123.275 161.595C122.358 161.595 122.247 161.928 122.858 162.817C123.441 163.649 124.635 163.844 125.968 163.316C127.023 162.9 127.411 162.428 127.856 161.095C128.05 160.484 127.467 152.599 127.189 152.294C127.106 152.21 126.44 153.515 125.718 155.181Z" fill="black"/>
<path d="M77.8801 149.628C76.9361 150.35 75.1869 154.015 74.5761 156.542C73.9375 159.179 73.9653 161.9 74.6871 162.622C75.9088 163.844 77.4914 162.955 78.8241 160.29C79.2961 159.29 79.8513 157.791 80.0179 156.958C80.2956 155.626 80.2956 155.376 79.8791 154.904C79.2405 154.21 79.2683 152.599 79.9624 151.711C80.2678 151.322 80.5177 150.822 80.5177 150.572C80.5177 150.017 79.5459 149.018 79.0184 149.018C78.8241 149.018 78.2965 149.295 77.8801 149.628Z" fill="black"/>
<path d="M200.265 149.406C199.377 150.156 197.989 152.821 197.322 155.043C196.934 156.32 196.934 156.514 197.295 156.514C199.044 156.514 201.321 154.265 202.015 151.905C202.792 149.24 201.931 148.018 200.265 149.406Z" fill="black"/>
<path d="M164.616 149.712C163.172 150.489 161.589 153.488 160.895 156.764C159.896 161.539 160.84 163.761 163.394 162.539C164.699 161.928 165.31 160.429 166.42 155.126C167.281 151.017 167.337 150.489 166.976 149.906C166.531 149.212 165.671 149.129 164.616 149.712Z" fill="black"/>
<path d="M116.333 186.583C115.472 187.027 115.278 187.749 115.25 190.72L115.223 193.163H112.446C110.031 193.163 109.586 193.246 109.114 193.718C108.809 194.024 108.559 194.579 108.559 194.968C108.559 195.357 108.809 195.912 109.114 196.217C109.586 196.689 110.031 196.773 112.418 196.773H115.167L115.278 199.688C115.389 202.936 115.667 203.519 117.166 203.519C118.665 203.519 118.971 202.936 119.054 199.688L119.165 196.773H121.914C125.023 196.773 125.773 196.384 125.773 194.857C125.773 193.524 124.968 193.163 121.858 193.163H119.165L119.054 190.248C118.971 187.222 118.776 186.75 117.583 186.389C117.277 186.305 116.722 186.389 116.333 186.583Z" fill="black"/>
<path d="M200.016 13.8043C194.907 14.4984 191.381 16.6085 189.271 20.2179C188.41 21.6895 187.327 25.6043 187.549 26.465C187.883 27.9087 189.521 27.409 189.771 25.7986C189.882 25.2433 190.215 24.0217 190.52 23.1054C191.992 18.8297 195.018 16.7474 200.904 15.97C203.792 15.5813 204.513 15.137 203.903 14.1375C203.542 13.5822 202.431 13.4989 200.016 13.8043Z" fill="black"/>
<path d="M199.072 18.6353C196.295 19.4405 193.796 21.3562 192.658 23.5774C192.047 24.799 191.298 27.7143 191.298 28.9915C191.298 29.63 191.131 29.991 190.715 30.2131C190.381 30.3797 188.299 30.6296 186.05 30.7406C181.441 31.0183 180.469 31.2404 178.637 32.4898C176.11 34.1557 174.917 37.2098 174.917 41.8464C174.917 46.5664 176.221 49.8426 179.248 52.6746C181.052 54.3405 183.524 55.7287 185.745 56.284C186.55 56.5061 193.075 56.7005 203.792 56.8948C222.699 57.228 223.393 57.1725 227.336 55.2845C229.918 54.0351 233.083 51.1198 234.277 48.8431C237.303 43.1791 236.304 37.0709 231.584 32.4065C227.697 28.5472 223.449 27.2145 218.646 28.3806C217.729 28.6028 216.591 28.7693 216.091 28.7971C215.258 28.7971 215.203 28.7138 214.62 27.0202C213.481 23.5496 211.094 20.8009 207.956 19.2739C206.346 18.4965 205.846 18.4132 203.236 18.3299C201.459 18.3021 199.849 18.4132 199.072 18.6353ZM206.429 21.0508C208.484 21.8282 210.761 23.9105 211.816 26.0762C212.288 27.0202 212.676 27.9364 212.676 28.1585C212.676 28.9359 213.537 30.1853 214.342 30.6018C215.369 31.1293 216.619 31.1293 218.979 30.574C223.116 29.6023 226.781 30.7129 230.057 33.9335C234.943 38.7646 234.971 45.7335 230.112 50.5645C228.058 52.5913 225.753 53.8407 222.783 54.5071C220.867 54.9235 219.229 54.9235 203.986 54.6737C188.16 54.4238 187.188 54.396 185.467 53.8407C182.08 52.7301 179.581 50.509 178.054 47.2328C177.332 45.7057 177.276 45.3448 177.276 42.1241C177.304 39.1255 177.388 38.4592 177.915 37.2375C179.359 34.0446 180.969 33.2394 186.716 32.934C189.021 32.823 191.214 32.6008 191.603 32.4343C192.825 31.99 193.435 30.935 193.63 28.8804C194.185 23.1887 197.073 20.5233 202.737 20.4955C204.264 20.4677 205.319 20.6343 206.429 21.0508Z" fill="black"/>
<path d="M202.764 23.272C202.57 23.4664 202.403 23.9384 202.403 24.3271L202.376 25.049L201.737 24.2438C200.932 23.272 200.265 23.3831 198.655 24.7158C197.572 25.6598 197.572 25.6598 198.044 26.3816C198.683 27.3534 198.655 27.4922 197.767 27.2979C197.322 27.2146 196.823 27.2423 196.656 27.3534C196.267 27.6033 195.629 30.6019 195.879 30.9906C195.962 31.1294 196.434 31.3515 196.906 31.4348L197.794 31.6291L197.045 32.1844C196.073 32.8785 196.101 33.2395 197.184 34.7665C198.155 36.127 198.822 36.3213 199.71 35.5162C200.238 35.0442 200.265 35.0719 200.071 36.0437C199.849 37.3209 200.21 37.654 202.098 37.8762C203.653 38.0427 204.347 37.7096 204.347 36.7656C204.347 36.238 204.402 36.238 205.152 36.9599C206.04 37.8206 206.096 37.8206 207.873 36.3769C209.039 35.4329 209.067 35.4051 208.65 34.6277L208.234 33.8225L209.289 33.7392C210.288 33.6559 210.316 33.6282 210.622 32.1289C210.983 30.352 210.733 29.6301 209.761 29.6301C208.872 29.6301 208.9 29.4635 209.816 28.6861C210.538 28.0753 210.566 27.9642 210.205 27.2979C209.983 26.9092 209.456 26.1873 209.039 25.6875C208.262 24.7713 208.262 24.7713 207.429 25.2433L206.568 25.7153V24.6325C206.568 23.6885 206.485 23.5497 205.818 23.4108C203.569 22.9666 203.07 22.9389 202.764 23.272ZM204.624 25.6598C204.624 26.5205 205.596 27.6866 206.346 27.6866C206.651 27.6866 207.123 27.5478 207.401 27.4089C208.151 27.0202 208.4 27.5755 207.679 28.0198C207.29 28.2696 207.123 28.6583 207.123 29.3525C207.123 30.5741 207.345 30.935 208.317 31.1571C209.261 31.407 209.039 31.8513 207.956 31.8513C206.818 31.8513 205.818 33.2672 206.263 34.2668C206.679 35.1552 206.457 35.4051 205.791 34.8221C205.18 34.2668 203.486 34.2112 203.014 34.6832C202.82 34.8776 202.681 35.2385 202.681 35.5162C202.681 35.7938 202.514 36.0159 202.292 36.0159C202.042 36.0159 201.959 35.7938 202.07 35.2941C202.181 34.7388 202.015 34.4056 201.404 33.9058C200.488 33.1562 200.127 33.1007 199.349 33.5727C198.6 34.0447 198.239 33.5449 199.016 33.0451C200.043 32.3233 199.655 30.0188 198.461 29.8522C198.1 29.7967 197.878 29.6301 197.961 29.4913C198.044 29.3247 198.377 29.2414 198.711 29.2969C199.127 29.3525 199.544 29.0748 200.043 28.3807C200.765 27.4645 200.793 27.3812 200.349 26.7426C199.766 25.8541 200.321 25.4377 200.932 26.2984C201.293 26.7981 201.543 26.8814 202.32 26.7704C203.486 26.576 204.069 26.1318 204.069 25.4377C204.069 25.1322 204.208 24.9101 204.347 24.9101C204.513 24.9101 204.624 25.2433 204.624 25.6598Z" fill="black"/>
<path d="M202.098 28.3807C200.599 29.1859 200.432 31.3515 201.765 32.4066C204.319 34.4056 207.262 30.9351 204.875 28.7139C203.986 27.881 203.181 27.7977 202.098 28.3807ZM203.931 30.6019C203.931 31.4348 202.848 31.3515 202.737 30.5186C202.653 29.9633 202.737 29.88 203.292 29.9633C203.709 30.0188 203.931 30.2409 203.931 30.6019Z" fill="black"/>
<path d="M215.647 32.8508C215.564 32.9896 215.425 33.5726 215.314 34.1557C215.064 35.4051 214.675 35.4606 213.926 34.3501C213.065 33.0729 212.593 33.0729 210.733 34.3778C208.928 35.655 208.762 36.0992 209.622 37.2098C210.539 38.3481 210.344 38.6258 208.817 38.4314C207.151 38.2371 207.012 38.3759 206.624 40.6804C206.207 43.0959 206.291 43.2625 208.345 43.5679C209.234 43.7067 209.15 44.2342 208.095 44.9283C207.54 45.317 207.123 45.8168 207.123 46.15C207.123 46.7053 209.428 49.8982 209.844 49.8982C209.983 49.8982 210.483 49.5928 211.01 49.2041C211.51 48.8431 212.038 48.5933 212.149 48.6766C212.26 48.7321 212.288 49.4262 212.204 50.1758C212.066 51.4808 212.093 51.5641 212.815 51.8417C213.232 52.0083 214.342 52.1471 215.286 52.2026L216.98 52.2582L217.23 51.0643C217.396 50.4257 217.618 49.8982 217.757 49.8982C217.924 49.8982 218.424 50.3702 218.923 50.9255L219.84 51.9805L221.672 50.7311C223.671 49.3707 223.866 48.8987 222.949 47.7603C222.116 46.7053 222.255 46.5387 223.782 46.5942C224.56 46.6497 225.281 46.5387 225.42 46.3999C225.559 46.261 225.809 45.2893 225.976 44.262C226.337 42.0964 226.142 41.5688 224.921 41.5688C224.532 41.5688 224.004 41.43 223.782 41.2912C223.449 41.0413 223.532 40.847 224.421 40.1528C224.976 39.6808 225.448 39.07 225.448 38.8201C225.448 38.2649 223.532 35.5439 222.977 35.3218C222.755 35.2385 222.144 35.4606 221.617 35.8493C221.061 36.238 220.534 36.4879 220.423 36.4046C220.312 36.3491 220.284 35.6827 220.367 34.9331C220.506 33.767 220.45 33.5449 219.978 33.2672C219.229 32.8785 215.842 32.5454 215.647 32.8508ZM218.451 35.766C218.368 36.7933 218.479 36.9877 219.423 37.7651L220.478 38.6536L221.561 38.015L222.644 37.4042L222.977 37.9872C223.255 38.5147 223.171 38.7091 222.45 39.3754C221.7 40.0695 221.617 40.3194 221.755 41.2079C221.978 42.5684 222.255 42.9015 223.421 43.1236C224.088 43.2625 224.338 43.4291 224.226 43.7067C224.143 43.9288 224.06 44.262 224.06 44.4286C224.06 44.6507 223.643 44.734 222.866 44.6785C221.728 44.5674 221.617 44.6507 220.867 45.7335L220.09 46.8719L220.673 47.677C221.422 48.6766 221.422 48.8431 220.728 49.2874C220.256 49.565 220.117 49.5095 219.562 48.7598C218.951 47.9547 218.84 47.8991 217.563 48.0657C215.98 48.2323 216.008 48.2323 215.758 49.3984C215.619 50.1481 215.425 50.3424 214.786 50.398C214.009 50.509 213.981 50.4812 214.176 49.3707C214.314 48.3989 214.259 48.1768 213.593 47.5382C212.482 46.5109 211.732 46.3999 210.844 47.094L210.094 47.677L209.678 47.094C209.289 46.5387 209.317 46.4554 210.15 45.678C210.899 44.9561 211.01 44.7062 210.872 43.9566C210.511 42.2352 210.455 42.1241 209.317 41.9575C208.512 41.8187 208.234 41.6521 208.345 41.3745C208.456 41.1524 208.512 40.8192 208.512 40.6248C208.512 40.4027 208.9 40.2917 209.65 40.2917C210.65 40.3194 210.899 40.1806 211.621 39.2921L212.454 38.2649L211.843 37.2653C211.233 36.2936 211.233 36.238 211.732 35.8771C212.454 35.3496 212.454 35.3496 213.093 36.3213C213.593 37.0987 213.759 37.1543 214.814 37.0432C216.23 36.9044 216.841 36.4602 216.841 35.5995C216.841 34.822 217.063 34.6277 217.868 34.6277C218.479 34.6277 218.535 34.711 218.451 35.766Z" fill="black"/>
<path d="M214.759 38.7647C213.842 39.1534 212.704 40.4584 212.426 41.4579C211.677 44.1788 214.231 46.9553 217.008 46.4277C217.535 46.3445 218.396 45.8725 218.923 45.4282C220.478 44.0678 220.728 42.0965 219.59 40.2085C218.785 38.9035 216.286 38.1539 214.759 38.7647ZM217.202 40.5139C217.535 40.6805 217.952 41.0136 218.146 41.2635C219.118 42.5407 217.924 44.7063 216.286 44.7063C215.231 44.7063 214.065 43.5958 214.065 42.5962C214.065 41.7911 214.786 40.7638 215.564 40.4584C216.369 40.1252 216.508 40.1252 217.202 40.5139Z" fill="black"/>
<path d="M203.153 63.1697C202.737 63.4196 202.431 63.6972 202.487 63.7805C202.515 63.8638 203.82 66.4737 205.375 69.6111C212.815 84.5761 216.341 97.2923 217.258 112.674L217.452 115.645L210.9 115.478L204.347 115.339V116.45V117.56L211.066 117.727C214.759 117.838 221.117 117.921 225.226 117.921H232.667V116.811V115.7H226.17H219.701L219.507 112.008C218.924 100.846 216.341 89.6293 211.594 77.6628C210.011 73.6925 204.597 62.6699 204.236 62.6699C204.07 62.6699 203.598 62.892 203.153 63.1697Z" fill="black"/>
<path d="M10.0229 80.9112L6.38574 84.7427L6.44127 86.1031C6.4968 86.8528 6.66339 87.5191 6.82997 87.5747C7.07986 87.6579 12.2163 82.6603 13.5768 80.9945L14.132 80.3003L17.6859 84.0208C19.9904 86.4363 21.3786 87.6857 21.6007 87.5469C21.7951 87.4358 21.9339 86.7695 21.9339 86.0754C21.9339 84.826 21.8784 84.7427 18.2967 80.9667C16.2422 78.8011 14.4375 77.1074 14.1598 77.1074C13.8822 77.1074 12.0497 78.8011 10.0229 80.9112Z" fill="black"/>
<path d="M10.0229 89.6016C6.46904 93.4053 6.38574 93.5441 6.38574 94.7658C6.38574 96.9314 6.8855 96.6815 10.7725 92.7112L14.2986 89.074L17.6304 92.6001C19.4628 94.5436 21.1565 96.1262 21.3786 96.1262C21.684 96.1262 21.8228 95.7653 21.8784 94.7935L21.9617 93.4886L18.269 89.6016C16.2422 87.4637 14.3542 85.7145 14.1043 85.7145C13.8544 85.7145 12.0219 87.4637 10.0229 89.6016Z" fill="black"/>
<path d="M10.0229 98.8193C6.52456 102.595 6.38574 102.79 6.38574 103.956C6.38574 106.149 6.94103 105.872 10.7725 101.818L14.2709 98.1252L17.797 101.846C20.9066 105.122 21.3508 105.511 21.7673 105.177C22.0172 104.955 22.2115 104.4 22.2115 103.789C22.2115 102.873 21.8506 102.429 18.4356 98.8193C16.2144 96.5148 14.4652 94.8767 14.1598 94.8767C13.8544 94.8767 12.1885 96.4593 10.0229 98.8193Z" fill="black"/>
</svg>
