<svg width="32" height="32" viewBox="0 0 32 32" fill="none" xmlns="http://www.w3.org/2000/svg">
<path d="M11.0816 1.00236C11.0376 1.02069 10.9863 1.06834 10.9643 1.10867C10.9387 1.15632 10.924 1.67686 10.924 2.63363V4.08527L11.0156 4.17325L11.1036 4.2649H12.3133H13.523L13.534 4.90274L13.545 5.54058L13.0758 5.63589C12.4966 5.75686 11.8771 5.94015 11.3272 6.1601C10.8214 6.36172 9.94157 6.80161 9.58599 7.02889C9.44669 7.12053 9.31473 7.19385 9.29273 7.19385C9.25607 7.19385 8.87117 6.59999 8.87117 6.54501C8.87117 6.52668 9.06179 6.39471 9.2964 6.24441C9.75462 5.95482 9.82793 5.8705 9.75462 5.70188C9.68863 5.55891 9.09478 4.62781 9.0068 4.52883C8.96648 4.48484 8.89683 4.44818 8.85284 4.44818C8.76853 4.44818 5.44734 6.53767 5.3447 6.65498C5.30804 6.6953 5.27871 6.76129 5.27871 6.79794C5.27871 6.87126 5.92389 7.92333 6.05952 8.0663C6.09984 8.11396 6.16949 8.15061 6.21348 8.15061C6.25747 8.15061 6.48842 8.02598 6.72669 7.87568C6.96863 7.72538 7.17392 7.60075 7.18491 7.60075C7.19591 7.60075 7.32421 7.79503 7.47084 8.02598L7.73844 8.45121L7.38653 8.81778C5.96054 10.3024 4.97812 12.194 4.56389 14.2541C4.31461 15.4822 4.29995 17.2637 4.52723 18.2938L4.54556 18.3781H3.33585C2.67235 18.3781 2.12615 18.3708 2.12615 18.3635C2.12615 18.3561 2.10415 18.1288 2.07483 17.8576C2.0455 17.59 2.01251 17.1684 1.99785 16.9191L1.97219 16.4719H2.83731H3.70243V16.3253V16.1787H2.59537C1.98318 16.1787 1.15105 16.1677 0.740486 16.153L0 16.131V16.2776V16.4243L0.839462 16.4536L1.67526 16.4792L1.70092 16.9815C1.72658 17.48 1.78157 18.0849 1.81822 18.2755L1.84022 18.3781H1.57628H1.31601L1.66793 18.895C2.01984 19.4045 2.02717 19.4192 2.14448 19.8774C2.30577 20.4823 2.55871 21.2154 2.81165 21.8019C2.95095 22.1209 3.00593 22.2895 2.98394 22.3225C2.96561 22.3518 2.58437 22.9163 2.13348 23.5835L1.31601 24.7932L2.95828 24.7969H4.60054L4.82049 25.0755C4.94146 25.2294 5.25672 25.5777 5.51699 25.849C7.95839 28.3857 11.2099 29.852 14.7511 30.0206L15.2863 30.0463V30.7208V31.3916H15.4329H15.5795V30.0976V28.8036L15.8655 28.7376C16.584 28.5726 17.1741 28.0448 17.4051 27.3593L17.4711 27.1686L18.0173 27.0293C19.5422 26.6444 20.9682 25.9443 22.1229 25.0168L22.3795 24.8115L26.1113 24.7932L29.8394 24.7749L28.868 23.3379C28.3328 22.5498 27.8965 21.8899 27.8965 21.8716C27.8965 21.8533 28.0908 21.637 28.3254 21.3877L28.7543 20.9332L29.2199 21.4244C29.6268 21.8533 29.6928 21.9083 29.7441 21.8643C29.7771 21.8349 29.8027 21.758 29.8027 21.6773C29.8027 21.5527 29.7624 21.5014 29.3042 21.0248C29.0292 20.7389 28.7763 20.5043 28.7397 20.5043C28.7067 20.5043 28.4904 20.7022 28.2631 20.9515C28.0322 21.2008 27.8159 21.4354 27.7756 21.4757C27.6986 21.5563 27.9698 21.1384 28.5087 20.3503L28.8533 19.8481L29.2675 20.277C29.6341 20.6509 29.6928 20.6985 29.7441 20.6546C29.7771 20.6252 29.8027 20.5519 29.8027 20.4823C29.8027 20.3723 29.7514 20.3026 29.4361 19.9691C29.2345 19.7528 29.0696 19.5658 29.0696 19.5475C29.0696 19.5292 29.1209 19.4412 29.1869 19.3495L29.3042 19.1846L29.5021 19.3752C29.6891 19.5622 29.7001 19.5658 29.7514 19.4998C29.8467 19.3715 29.8137 19.2322 29.6488 19.0526L29.4985 18.8877L29.6708 18.642L29.8394 18.3964L29.4288 18.3854L29.0146 18.3744L28.8826 18.2461L28.747 18.1142L28.6004 18.2461L28.4574 18.3781H27.3027H26.1516L26.2249 17.9272C26.3349 17.2381 26.3312 15.5188 26.2176 14.7967C25.8364 12.3516 24.7403 10.2108 22.9991 8.51352C21.4411 6.99956 19.5349 6.00614 17.3758 5.58457L17.1741 5.54792L17.1851 4.90641L17.1961 4.2649H18.4058H19.6155L19.7035 4.17325C19.7695 4.10727 19.7952 4.04495 19.7952 3.93498C19.7952 3.85433 19.7988 3.78835 19.8062 3.78835C19.8098 3.78835 19.9455 3.83967 20.1031 3.89832C20.7336 4.14392 21.7124 4.63147 22.4089 5.0567C22.5885 5.16668 22.7498 5.24732 22.7681 5.23266C22.7864 5.22166 22.8268 5.16668 22.8524 5.11169L22.9074 5.00905L22.4052 4.71579C22.1303 4.55083 21.6391 4.28689 21.3165 4.1256C20.7629 3.85066 19.9308 3.49508 19.8392 3.49508C19.8062 3.49508 19.7952 3.18349 19.7952 2.3257C19.7952 1.22964 19.7915 1.15266 19.7255 1.07201L19.6559 0.98403L15.4072 0.976699C13.0062 0.973033 11.1293 0.98403 11.0816 1.00236ZM18.2922 2.6153V3.78835H14.8464H11.4006V2.6153V1.44225H14.8464H18.2922V2.6153ZM18.6954 2.6153V3.78835H18.5855H18.4755V2.6153V1.44225H18.5855H18.6954V2.6153ZM19.3186 2.6153V3.78835H19.1537H18.9887V2.6153V1.44225H19.1537H19.3186V2.6153ZM16.6793 4.97972V5.4746L16.3603 5.44894C15.9534 5.41228 14.7401 5.41228 14.3442 5.44527L14.0399 5.47093V4.97972V4.48484H15.3596H16.6793V4.97972ZM8.99214 5.36463C9.10578 5.54425 9.20109 5.70554 9.20109 5.72021C9.20109 5.7532 6.40044 7.53843 6.32346 7.55676C6.28313 7.56776 5.86523 6.94824 5.86523 6.88226C5.8689 6.8456 8.68421 5.0457 8.74653 5.03837C8.76853 5.03471 8.8785 5.18134 8.99214 5.36463ZM16.7672 5.96581C18.1126 6.16376 19.3223 6.567 20.433 7.18651C23.5159 8.90576 25.4991 11.9667 25.8107 15.4858C25.8803 16.274 25.8107 17.7366 25.6787 18.2938L25.6604 18.3781H24.6743H23.6919L23.7542 18.0555C24.0108 16.7982 23.9741 15.5005 23.6406 14.2101C22.9587 11.5415 20.9096 9.287 18.3069 8.33757C17.3831 8.00032 16.6463 7.86102 15.6125 7.83169C15.169 7.81703 14.7327 7.82802 14.4761 7.85369C12.4453 8.06263 10.6051 8.95708 9.18276 10.4271C7.50017 12.1683 6.64971 14.4557 6.78534 16.8861C6.811 17.3334 6.92831 18.1655 6.98696 18.3195C7.00896 18.3708 6.90631 18.3781 6.01553 18.3781C5.46933 18.3781 5.02211 18.3744 5.02211 18.3671C5.02211 18.3635 5.00011 18.2278 4.97079 18.0665C4.75817 16.8642 4.81316 15.3025 5.11009 13.9829C5.6123 11.7724 6.94664 9.64991 8.74653 8.20193C10.3925 6.87859 12.3573 6.09412 14.5165 5.89983C14.8904 5.86684 16.3823 5.91083 16.7672 5.96581ZM8.73187 7.24517L8.88583 7.49811L8.77586 7.57875C8.71721 7.61908 8.54125 7.76204 8.38362 7.88668C8.22599 8.01498 8.09036 8.11396 8.08669 8.10662C8.03904 8.0553 7.66146 7.44678 7.66146 7.42479C7.66146 7.41013 7.84842 7.28183 8.0757 7.13519C8.54125 6.83827 8.47893 6.82727 8.73187 7.24517ZM16.43 8.3559C19.9125 8.80312 22.7278 11.5268 23.3326 15.0349C23.4976 15.9917 23.4536 17.3334 23.2337 18.2205C23.1933 18.3928 23.1127 18.4258 23.0174 18.3121C22.9331 18.2132 22.1999 18.0555 22.1229 18.1215C22.0533 18.1802 22.0533 18.2461 22.1266 18.3195C22.1779 18.3744 22.1193 18.3781 21.4851 18.3781H20.7886L20.8436 18.2242C20.9939 17.7953 21.1478 16.9521 21.1515 16.5526V16.3986H21.0049C20.9022 16.3986 20.8582 16.4133 20.8582 16.4499C20.8582 16.4792 20.8399 16.6699 20.8179 16.8788C20.7739 17.3334 20.7116 17.6523 20.5833 18.0702L20.488 18.3781H14.4945C8.96648 18.3781 8.50459 18.3744 8.55958 18.3195C8.62923 18.2498 8.61823 18.1618 8.53392 18.1105C8.48993 18.0812 8.37995 18.0958 8.09769 18.1765C7.89241 18.2351 7.70179 18.3048 7.67613 18.3305C7.65047 18.3561 7.59548 18.3781 7.55516 18.3781C7.47817 18.3781 7.47084 18.3525 7.34254 17.6816C7.26923 17.293 7.2399 15.955 7.29122 15.4785C7.50383 13.6456 8.3103 11.9703 9.60066 10.6763C10.0882 10.1888 10.3925 9.94317 10.9497 9.5766C11.9174 8.94609 13.0978 8.50619 14.2232 8.3559C14.7621 8.28258 15.8728 8.28258 16.43 8.3559ZM6.10351 19.0819C6.11451 19.1076 6.1365 19.8114 6.15117 20.6472L6.17683 22.1685L6.70836 20.6216L7.23623 19.0746H7.57348C7.84842 19.0746 7.9144 19.0856 7.93273 19.1333C7.94373 19.1663 7.95472 19.7528 7.95839 20.4419C7.96206 21.1311 7.97305 21.7873 7.98405 21.8973L8.00971 22.0989L8.51559 20.6142C8.79419 19.7968 9.03613 19.1149 9.05079 19.1003C9.06912 19.0819 9.16443 19.0746 9.26341 19.0819L9.45036 19.0929L8.72454 21.0358L7.99871 22.9787L7.59181 22.9897L7.18491 23.0007L7.18125 22.2565C7.17758 21.8459 7.16658 21.2777 7.15192 20.9881L7.12993 20.4639L6.65704 21.7286L6.18416 22.997H5.79192H5.39968L5.37402 22.0146C5.36302 21.4757 5.34103 20.6766 5.32637 20.2403L5.30437 19.4449L5.1724 19.5145C4.98912 19.6061 4.78383 19.8224 4.68486 20.024C4.61521 20.167 4.60054 20.2513 4.60054 20.5702C4.60054 20.9368 4.59688 20.9442 4.51623 20.9442C4.3806 20.9442 4.18998 20.8452 4.12033 20.7425C4.02868 20.6032 4.03601 20.2367 4.13499 20.046C4.29995 19.7271 4.66286 19.4082 5.0661 19.2286C5.40335 19.0819 6.06685 18.9866 6.10351 19.0819ZM14.4798 20.211C14.3808 20.6802 14.3038 21.0725 14.3112 21.0798C14.3148 21.0871 14.5311 20.9258 14.7877 20.7242L15.2533 20.354L15.5355 20.365L15.8178 20.376L15.3449 20.7022L14.872 21.0285L15.0407 21.0725C15.2496 21.1238 15.3486 21.2081 15.4366 21.4024C15.5209 21.5857 15.5209 21.692 15.4439 22.0695C15.3742 22.4068 15.3999 22.4838 15.5759 22.4838C15.7262 22.4838 15.8215 22.3921 15.8691 22.2052C15.8948 22.0989 15.9571 21.9926 16.0231 21.9302C16.1551 21.8093 16.4043 21.3144 16.584 20.8159C16.6573 20.6142 16.7342 20.4126 16.7526 20.3723C16.7782 20.3026 16.8332 20.288 17.1521 20.2477C17.3574 20.222 17.5334 20.211 17.548 20.2257C17.5737 20.2477 17.6067 20.7132 17.6617 21.7836L17.6873 22.2748L17.8523 22.1502L18.0136 22.0256L18.1529 21.3657C18.2299 21.0028 18.3179 20.5849 18.3509 20.4383L18.4058 20.1743H18.8054H19.2013L19.1683 20.31C19.1243 20.5116 19.1243 20.5116 19.2746 20.4346C19.5642 20.288 19.9308 20.3063 20.1141 20.4749C20.2827 20.6289 20.345 20.8195 20.345 21.2008C20.345 21.9632 20.0811 22.5974 19.6485 22.8687C19.3736 23.041 18.8494 23.0813 18.6991 22.9457C18.6148 22.8687 18.6295 22.821 18.4718 23.5688L18.3545 24.1224L17.9659 24.214C17.7533 24.2653 17.5664 24.302 17.5554 24.2947C17.5444 24.2873 17.6214 23.8731 17.7277 23.3746C17.834 22.876 17.9183 22.4545 17.9146 22.4361C17.911 22.4215 17.7827 22.5021 17.6324 22.6121C17.2548 22.8907 17.0092 23.0007 16.7379 23.0226C16.4447 23.0483 16.232 22.986 16.0597 22.832L15.9204 22.7037L15.8325 22.8027C15.6418 23.008 15.2789 23.0886 14.9893 22.9933C14.6448 22.876 14.5494 22.5754 14.6668 21.9926C14.7217 21.703 14.6887 21.5563 14.5568 21.538C14.4541 21.5233 14.2855 21.5893 14.2085 21.6736C14.1792 21.7066 14.0949 22.0146 14.0216 22.3555C13.9519 22.6964 13.8859 22.9787 13.8786 22.986C13.8713 22.9933 13.6953 22.9933 13.4827 22.9897L13.0978 22.9787L13.4387 21.384C13.6257 20.5079 13.798 19.7051 13.82 19.6025L13.8603 19.4155L14.2342 19.3605C14.4395 19.3312 14.6191 19.3202 14.6374 19.3312C14.6521 19.3422 14.5824 19.7381 14.4798 20.211ZM3.05725 20.9368L3.48981 21.571L3.35418 21.7763C3.28087 21.8863 3.21488 21.9706 3.20755 21.9632C3.14157 21.8936 2.56604 20.3796 2.56604 20.2733C2.56604 20.2147 2.58437 20.2403 3.05725 20.9368ZM10.7187 20.3723C10.9057 20.4493 11.034 20.6472 11.0816 20.9258L11.122 21.1641L11.2539 21.1421C11.5252 21.0908 11.5362 21.0798 11.6022 20.7719C11.6352 20.6142 11.6718 20.4566 11.6828 20.4199C11.6975 20.365 11.7488 20.3576 12.086 20.3576H12.4746L12.449 20.5079L12.4233 20.6582L12.5443 20.5592C12.8815 20.2733 13.2371 20.2953 13.3654 20.6032C13.4717 20.8562 13.2921 21.1641 13.0318 21.1641C12.8999 21.1641 12.8119 21.0871 12.7752 20.9332C12.7422 20.8122 12.6432 20.8012 12.4746 20.9075C12.4086 20.9478 12.3537 20.9845 12.3537 20.9881C12.35 20.9955 12.2547 21.4427 12.141 21.9889L11.9284 22.9787L11.5362 22.9897C11.3199 22.9933 11.1439 22.986 11.1439 22.9713C11.1439 22.953 11.2173 22.5938 11.3089 22.1722C11.4959 21.2997 11.4885 21.3437 11.4299 21.3657C11.4042 21.373 11.3126 21.3987 11.2283 21.4207C11.1036 21.45 11.0706 21.4757 11.0706 21.538C11.0706 21.6993 10.9497 22.1062 10.836 22.3188C10.5977 22.777 10.2532 23.008 9.80594 23.008C9.46869 23.008 9.23774 22.9053 9.09845 22.6927C9.01413 22.5644 8.99947 22.4984 8.98847 22.2052C8.95548 21.3877 9.39171 20.5996 9.99656 20.376C10.1798 20.31 10.5648 20.3063 10.7187 20.3723ZM22.0863 20.4309L22.1669 20.5079L22.1889 20.4346C22.2072 20.3613 22.2366 20.3576 22.5958 20.3576C22.8084 20.3576 22.9844 20.3686 22.9844 20.387C22.9844 20.4016 22.8927 20.8488 22.7828 21.3804C22.5922 22.2785 22.5812 22.3518 22.6361 22.4325C22.7205 22.5608 22.8561 22.5461 23.0064 22.3958C23.1127 22.2895 23.131 22.2455 23.131 22.0915C23.131 21.6443 23.3876 20.9918 23.6809 20.6949C23.9192 20.4529 24.1464 20.3466 24.458 20.3283C24.8723 20.3026 25.0995 20.4346 25.1362 20.7169C25.1839 21.0578 24.9859 21.2777 24.7256 21.1788C24.678 21.1604 24.6706 21.1201 24.6926 20.9405C24.7183 20.7205 24.6816 20.6142 24.5753 20.6142C24.5497 20.6142 24.469 20.6729 24.3994 20.7462C24.0988 21.0541 23.8385 22.0769 23.9778 22.3848C24.0988 22.6524 24.59 22.6011 24.9566 22.2785C25.1215 22.1319 25.1472 22.0952 25.1472 21.9742C25.1472 21.6223 25.4075 20.9845 25.6641 20.7059C25.884 20.4676 26.2066 20.321 26.5182 20.321C26.9764 20.321 27.1487 20.4676 27.1414 20.8525C27.1377 21.1311 27.0644 21.2997 26.8518 21.5233C26.6722 21.7176 26.3422 21.8899 26.0966 21.9229L25.9537 21.9449V22.1172C25.9537 22.3628 26.0526 22.4838 26.2579 22.4838C26.4082 22.4838 26.6245 22.3995 26.7895 22.2785C26.8664 22.2235 26.8701 22.2235 26.8701 22.2858C26.8701 22.4178 26.6942 22.7294 26.5585 22.8394C26.3386 23.019 25.9683 23.0813 25.6421 22.9933C25.4698 22.9457 25.1839 22.6781 25.1839 22.5644C25.1839 22.4361 25.1289 22.4435 24.9786 22.5974C24.5387 23.0483 23.8019 23.1693 23.395 22.8614C23.329 22.81 23.2557 22.7331 23.2337 22.6854C23.197 22.6011 23.197 22.6011 23.054 22.744C22.8671 22.931 22.7205 23.0007 22.4712 23.0226C22.1999 23.0483 22.013 22.964 21.9286 22.7807C21.8957 22.7074 21.8627 22.6414 21.859 22.6341C21.8517 22.6231 21.7857 22.6781 21.7087 22.7514C21.3531 23.096 20.8692 23.1253 20.5906 22.8174C20.4367 22.6487 20.3817 22.4764 20.3817 22.1722C20.3854 21.5014 20.7483 20.7535 21.2102 20.4676C21.4668 20.3063 21.936 20.288 22.0863 20.4309ZM8.66588 25.0865C9.91958 26.0542 11.3786 26.7397 12.9475 27.099L13.3911 27.2016L13.4351 27.3446C13.6073 27.9238 14.1645 28.4883 14.7474 28.6753C14.872 28.7156 15.0443 28.7596 15.1323 28.7706L15.2863 28.7962V29.2728V29.753L14.7657 29.7273C12.8375 29.632 11.0596 29.1701 9.38438 28.3307C8.18933 27.7295 7.24723 27.077 6.23181 26.1459C5.85424 25.7976 5.18707 25.0865 5.03677 24.8739L4.98178 24.7932H6.63505H8.28831L8.66588 25.0865ZM13.9483 24.8482C14.1096 24.8775 14.2635 24.8995 14.2892 24.9032C14.3185 24.9032 14.2599 24.9655 14.1609 25.0462C13.677 25.4274 13.3471 26.0359 13.3434 26.5418C13.3434 26.6298 13.3324 26.6994 13.3177 26.6994C13.2994 26.6994 13.1161 26.6591 12.9035 26.6078C12.0604 26.4025 11.067 26.0212 10.3265 25.6143C9.93424 25.3981 9.1461 24.8922 9.10944 24.8299C9.09478 24.8042 9.87926 24.7932 11.3712 24.7932C13.2004 24.7932 13.7137 24.8042 13.9483 24.8482ZM21.6097 24.8225C21.5181 24.9032 21.0635 25.2074 20.7519 25.3944C20.0408 25.827 19.1463 26.2192 18.3435 26.4538C17.8633 26.5968 17.5554 26.6701 17.5407 26.6554C17.5371 26.6481 17.5114 26.5308 17.4894 26.3915C17.3978 25.86 17.0935 25.3431 16.7123 25.0755C16.5949 24.9912 16.4996 24.9105 16.4996 24.8995C16.496 24.8885 16.5986 24.8629 16.7269 24.8409C17.0055 24.7969 21.6574 24.7786 21.6097 24.8225ZM16.1734 25.0791C16.8186 25.3907 17.1961 25.9883 17.1961 26.6921C17.1961 27.2346 17.0238 27.6379 16.6279 28.0118C15.5025 29.0748 13.6367 28.2574 13.6367 26.6994C13.6367 26.0982 13.9336 25.5447 14.4248 25.2148C14.7474 25.0022 14.9234 24.9582 15.4586 24.9582C15.9094 24.9618 15.9388 24.9655 16.1734 25.0791Z" fill="white"/>
<path d="M15.2204 8.4512C15.1654 8.50618 15.1617 9.16602 15.2131 9.30166C15.2571 9.41896 15.411 9.43363 15.4697 9.32365C15.5173 9.23567 15.4807 8.52451 15.422 8.4512C15.378 8.39621 15.279 8.39254 15.2204 8.4512Z" fill="white"/>
<path d="M17.2727 8.6969C17.225 8.72623 17.0491 9.34941 17.0454 9.49238C17.0454 9.59502 17.1334 9.66467 17.225 9.63534C17.3057 9.60968 17.3717 9.43372 17.456 9.02316C17.489 8.8692 17.489 8.78855 17.4633 8.74456C17.4157 8.67124 17.3387 8.65292 17.2727 8.6969Z" fill="white"/>
<path d="M13.1751 8.75561C13.1494 8.81793 13.1641 8.89125 13.2924 9.31281C13.3877 9.6244 13.4684 9.71238 13.582 9.61707C13.659 9.55109 13.6516 9.47044 13.527 9.06354C13.417 8.71163 13.4097 8.70063 13.3034 8.70063C13.2411 8.70063 13.1861 8.72262 13.1751 8.75561Z" fill="white"/>
<path d="M11.2906 9.5434C11.2576 9.60572 11.2832 9.67537 11.4665 9.97596C11.6572 10.2949 11.6901 10.3315 11.7891 10.3315C11.9651 10.3315 11.9468 10.2069 11.7121 9.81467C11.5435 9.5324 11.4922 9.47009 11.4189 9.47009C11.3676 9.47009 11.3126 9.49941 11.2906 9.5434Z" fill="white"/>
<path d="M18.9523 9.81467C18.7397 10.2142 18.725 10.3315 18.8973 10.3315C19 10.3315 19.022 10.3022 19.2016 9.98329C19.4215 9.58739 19.4289 9.49575 19.2566 9.47742C19.1466 9.46642 19.1356 9.47742 18.9523 9.81467Z" fill="white"/>
<path d="M14.8058 10.6068C12.544 10.8157 10.5572 12.3883 9.84237 14.5438C9.77638 14.7454 9.69207 15.046 9.65908 15.2036C9.58576 15.5592 9.51611 16.2704 9.54544 16.3437C9.55644 16.3767 9.61142 16.3987 9.6884 16.3987C9.80204 16.3987 9.81671 16.384 9.8387 16.285C9.8497 16.2227 9.8607 16.0834 9.8607 15.9808C9.8607 15.1926 10.3006 13.9719 10.8761 13.1618C11.1474 12.7769 11.7376 12.1867 12.1225 11.9154C12.9326 11.3399 14.1533 10.9 14.9414 10.9C15.0441 10.9 15.1834 10.889 15.2457 10.878C15.3557 10.856 15.363 10.845 15.352 10.7204C15.3374 10.5664 15.3154 10.5591 14.8058 10.6068Z" fill="white"/>
<path d="M20.5245 10.9807C20.3668 11.1493 20.2349 11.3106 20.2349 11.3399C20.2349 11.4133 20.3082 11.4866 20.3815 11.4866C20.4695 11.4866 21.0047 10.9294 21.0047 10.8377C21.0047 10.7644 20.913 10.6801 20.836 10.6801C20.8214 10.6801 20.6821 10.8157 20.5245 10.9807Z" fill="white"/>
<path d="M9.6775 10.7863C9.62251 10.8926 9.65184 10.9366 9.97076 11.2262C10.264 11.4901 10.3227 11.5231 10.4033 11.4425C10.4876 11.3581 10.4436 11.2775 10.1577 10.9989C9.86079 10.7093 9.74715 10.658 9.6775 10.7863Z" fill="white"/>
<path d="M19.3517 11.9043C17.9367 12.5641 17.8963 12.5861 17.9477 12.7878C17.9733 12.8941 18.043 12.9417 18.2409 12.982L18.3766 13.0114L17.0862 14.2394L15.7959 15.4711L15.6602 15.4235C15.4183 15.3355 15.1434 15.3575 14.8867 15.4858C14.6485 15.6067 14.5275 15.7314 14.4102 15.9953C14.3186 16.1969 14.3112 16.5268 14.3882 16.7175L14.4469 16.8531L14.1646 17.1354L13.8823 17.4213L14.018 17.5863C14.0949 17.6779 14.1683 17.7549 14.1793 17.7549C14.1939 17.7549 14.3222 17.6376 14.4615 17.4983C14.6008 17.3553 14.7364 17.2417 14.7584 17.2417C14.7804 17.2417 14.8794 17.2747 14.9747 17.3187C15.191 17.414 15.5576 17.403 15.7812 17.2967C15.9645 17.205 16.1661 17.0071 16.2577 16.8201C16.3677 16.6002 16.3604 16.1419 16.2467 15.9257C16.1991 15.8377 16.1661 15.7644 16.1734 15.7607C16.1808 15.757 16.7526 15.2108 17.4418 14.5473C18.7431 13.3083 18.7651 13.29 18.7688 13.5466C18.7688 13.7482 19.0547 13.8838 19.1757 13.7372C19.2637 13.6309 20.0152 12.0289 20.0152 11.9446C20.0152 11.864 19.9345 11.7723 19.8282 11.732C19.7952 11.721 19.5826 11.798 19.3517 11.9043ZM15.6089 15.922C15.7995 16.0393 15.8802 16.2006 15.8618 16.4279C15.8508 16.5965 15.8288 16.6442 15.7115 16.7578C15.5869 16.8861 15.5649 16.8934 15.345 16.8934C15.1434 16.8934 15.0957 16.8788 15.0114 16.8018C14.8757 16.6735 14.8098 16.5378 14.8098 16.3729C14.8098 16.0943 15.059 15.8487 15.3413 15.8487C15.4219 15.8487 15.5393 15.8817 15.6089 15.922Z" fill="white"/>
<path d="M8.45345 12.3882C8.33981 12.5019 8.39847 12.5679 8.80537 12.7878C9.17561 12.9858 9.29291 12.9931 9.29291 12.8245C9.29291 12.7255 9.26359 12.6998 8.94467 12.5239C8.75405 12.4176 8.57809 12.3296 8.55243 12.3296C8.53043 12.3296 8.48278 12.3552 8.45345 12.3882Z" fill="white"/>
<path d="M21.6902 12.5349C21.4043 12.7182 21.3676 12.7512 21.3786 12.8355C21.397 13.0005 21.5216 12.9822 21.9065 12.7512C22.2217 12.5643 22.2547 12.5349 22.2437 12.4469C22.2254 12.2747 22.0605 12.3003 21.6902 12.5349Z" fill="white"/>
<path d="M22.7276 14.2358C22.6763 14.2541 22.5186 14.3018 22.372 14.3458C22.0971 14.4228 22.0127 14.5107 22.1044 14.6207C22.1704 14.6977 22.251 14.6904 22.6543 14.5657C23.0245 14.4521 23.0868 14.3971 23.0208 14.2688C22.9805 14.1955 22.8815 14.1845 22.7276 14.2358Z" fill="white"/>
<path d="M7.66165 14.2907C7.592 14.375 7.65432 14.485 7.78629 14.5253C8.40947 14.6939 8.58176 14.7049 8.60375 14.5619C8.62208 14.4593 8.5451 14.4116 8.20785 14.3273C7.80462 14.221 7.72397 14.2173 7.66165 14.2907Z" fill="white"/>
<path d="M22.5263 16.2483C22.3613 16.2667 22.343 16.2813 22.332 16.3693C22.3137 16.5233 22.42 16.5526 22.8709 16.5196C23.1751 16.4976 23.2595 16.4756 23.2925 16.4243C23.3218 16.3803 23.3218 16.3437 23.2925 16.296C23.2595 16.2483 23.1971 16.2337 22.9809 16.23C22.8306 16.2263 22.6289 16.2373 22.5263 16.2483Z" fill="white"/>
<path d="M7.41215 16.2959C7.39016 16.3179 7.36816 16.3655 7.36816 16.3985C7.36816 16.5195 7.44881 16.5452 7.84471 16.5452C8.27728 16.5452 8.37259 16.5085 8.35059 16.3582C8.33959 16.2702 8.33593 16.2702 7.8997 16.2592C7.58811 16.2519 7.44515 16.2629 7.41215 16.2959Z" fill="white"/>
<path d="M19.1352 20.8598C19.0362 20.9551 19.0142 21.0211 18.8786 21.6589C18.7979 22.0402 18.7319 22.3848 18.7319 22.4214C18.7319 22.4581 18.7686 22.4984 18.8162 22.5167C19.1315 22.6377 19.4504 22.2345 19.5641 21.5746C19.6557 21.0357 19.5861 20.7608 19.3515 20.7608C19.2891 20.7608 19.2012 20.8011 19.1352 20.8598Z" fill="white"/>
<path d="M16.5984 21.4646C16.4444 21.8275 16.4334 21.8752 16.4847 21.9265C16.5214 21.9631 16.5324 22.0181 16.5177 22.0951C16.4847 22.2454 16.4114 22.3114 16.2758 22.3114C16.1548 22.3114 16.1401 22.3554 16.2208 22.4727C16.2978 22.5827 16.4554 22.6083 16.6314 22.5387C16.7706 22.4837 16.822 22.4214 16.8806 22.2454C16.9063 22.1648 16.8293 21.1237 16.7926 21.0834C16.7816 21.0724 16.6937 21.2446 16.5984 21.4646Z" fill="white"/>
<path d="M10.2826 20.7316C10.1579 20.8269 9.92698 21.3108 9.84634 21.6444C9.76202 21.9926 9.76569 22.3519 9.861 22.4472C10.0223 22.6085 10.2312 22.4912 10.4072 22.1392C10.4695 22.0073 10.5428 21.8093 10.5648 21.6994C10.6015 21.5234 10.6015 21.4904 10.5465 21.4281C10.4622 21.3364 10.4658 21.1238 10.5575 21.0065C10.5978 20.9552 10.6308 20.8892 10.6308 20.8562C10.6308 20.7829 10.5025 20.6509 10.4329 20.6509C10.4072 20.6509 10.3375 20.6876 10.2826 20.7316Z" fill="white"/>
<path d="M26.4412 20.7022C26.3239 20.8012 26.1406 21.1531 26.0526 21.4463C26.0013 21.615 26.0013 21.6406 26.049 21.6406C26.2799 21.6406 26.5805 21.3437 26.6721 21.0321C26.7748 20.6802 26.6612 20.5189 26.4412 20.7022Z" fill="white"/>
<path d="M21.7343 20.7425C21.5437 20.8452 21.3347 21.2411 21.2431 21.6736C21.1111 22.3042 21.2358 22.5974 21.573 22.4361C21.7453 22.3555 21.8259 22.1575 21.9726 21.4574C22.0862 20.9148 22.0935 20.8452 22.0459 20.7682C21.9872 20.6766 21.8736 20.6656 21.7343 20.7425Z" fill="white"/>
<path d="M15.3594 25.6108C15.2458 25.6695 15.2201 25.7648 15.2165 26.157L15.2128 26.4796H14.8462C14.5273 26.4796 14.4686 26.4906 14.4063 26.5529C14.366 26.5932 14.333 26.6665 14.333 26.7179C14.333 26.7692 14.366 26.8425 14.4063 26.8828C14.4686 26.9451 14.5273 26.9561 14.8426 26.9561H15.2055L15.2201 27.341C15.2348 27.7699 15.2714 27.8469 15.4694 27.8469C15.6673 27.8469 15.7077 27.7699 15.7187 27.341L15.7333 26.9561H16.0962C16.5068 26.9561 16.6058 26.9048 16.6058 26.7032C16.6058 26.5272 16.4995 26.4796 16.0889 26.4796H15.7333L15.7187 26.0947C15.7077 25.6951 15.682 25.6328 15.5244 25.5851C15.4841 25.5741 15.4107 25.5851 15.3594 25.6108Z" fill="white"/>
<path d="M26.4086 2.79853C25.7341 2.89017 25.2685 3.16877 24.9899 3.64532C24.8763 3.83961 24.7333 4.35648 24.7627 4.47012C24.8067 4.66074 25.0229 4.59476 25.0559 4.38214C25.0706 4.30883 25.1146 4.14753 25.1549 4.02656C25.3492 3.46203 25.7488 3.1871 26.5259 3.08446C26.9071 3.03314 27.0025 2.97449 26.9218 2.84252C26.8741 2.7692 26.7275 2.7582 26.4086 2.79853Z" fill="white"/>
<path d="M26.2835 3.43641C25.9169 3.54272 25.587 3.79566 25.4367 4.08892C25.356 4.25022 25.257 4.63512 25.257 4.80375C25.257 4.88806 25.235 4.93571 25.1801 4.96504C25.1361 4.98704 24.8611 5.02003 24.5642 5.03469C23.9557 5.07135 23.8274 5.10067 23.5855 5.26563C23.2519 5.48558 23.0942 5.88882 23.0942 6.501C23.0942 7.12418 23.2665 7.55674 23.6661 7.93065C23.9044 8.1506 24.2306 8.33389 24.5239 8.4072C24.6302 8.43653 25.4917 8.46219 26.9066 8.48785C29.403 8.53184 29.4947 8.52451 30.0152 8.27523C30.3561 8.11027 30.774 7.72537 30.9317 7.42477C31.3312 6.67696 31.1993 5.87049 30.5761 5.25464C30.0629 4.74509 29.502 4.56914 28.8678 4.7231C28.7469 4.75243 28.5966 4.77442 28.5306 4.77809C28.4206 4.77809 28.4133 4.76709 28.3363 4.54348C28.186 4.08526 27.8707 3.72234 27.4565 3.52073C27.2439 3.41808 27.1779 3.40709 26.8333 3.39609C26.5987 3.39242 26.3861 3.40709 26.2835 3.43641ZM27.2549 3.75534C27.5262 3.85798 27.8268 4.13291 27.9661 4.41884C28.0284 4.54348 28.0797 4.66445 28.0797 4.69377C28.0797 4.79642 28.1933 4.96138 28.2996 5.01636C28.4353 5.08601 28.6002 5.08601 28.9118 5.0127C29.458 4.88439 29.9419 5.03102 30.3745 5.45625C31.0196 6.0941 31.0233 7.01421 30.3818 7.65205C30.1105 7.91965 29.8063 8.08461 29.414 8.17259C29.1611 8.22758 28.9448 8.22758 26.9323 8.19459C24.8428 8.16159 24.7145 8.15793 24.4872 8.08461C24.04 7.93798 23.7101 7.64472 23.5085 7.21216C23.4132 7.01054 23.4058 6.96289 23.4058 6.53766C23.4095 6.14175 23.4205 6.05378 23.4901 5.89248C23.6808 5.47092 23.8934 5.36461 24.6522 5.32429C24.9565 5.30962 25.246 5.2803 25.2974 5.2583C25.4587 5.19965 25.5393 5.06035 25.565 4.78908C25.6383 4.0376 26.0195 3.68569 26.7673 3.68202C26.969 3.67835 27.1083 3.70035 27.2549 3.75534Z" fill="white"/>
<path d="M26.7715 4.04855C26.7459 4.07421 26.7239 4.13653 26.7239 4.18785L26.7202 4.28316L26.6359 4.17685C26.5296 4.04855 26.4416 4.06321 26.229 4.23917C26.086 4.36381 26.086 4.36381 26.1484 4.45912C26.2327 4.58742 26.229 4.60575 26.1117 4.58009C26.053 4.56909 25.9871 4.57276 25.9651 4.58742C25.9137 4.62041 25.8294 5.01631 25.8624 5.06763C25.8734 5.08596 25.9357 5.11529 25.9981 5.12629L26.1154 5.15195L26.0164 5.22526C25.8881 5.31691 25.8918 5.36456 26.0347 5.56618C26.163 5.7458 26.251 5.77146 26.3683 5.66515C26.438 5.60284 26.4416 5.6065 26.416 5.7348C26.3866 5.90343 26.4343 5.94742 26.6836 5.97675C26.8888 5.99874 26.9805 5.95475 26.9805 5.83011C26.9805 5.76046 26.9878 5.76046 27.0868 5.85577C27.2041 5.96941 27.2114 5.96941 27.446 5.77879C27.6 5.65416 27.6037 5.65049 27.5487 5.54785L27.4937 5.44154L27.633 5.43055C27.765 5.41955 27.7686 5.41588 27.8089 5.21793C27.8566 4.98332 27.8236 4.88801 27.6953 4.88801C27.578 4.88801 27.5817 4.86602 27.7026 4.76338C27.798 4.68273 27.8016 4.66807 27.754 4.58009C27.7246 4.52877 27.655 4.43346 27.6 4.36747C27.4974 4.2465 27.4974 4.2465 27.3874 4.30882L27.2737 4.37114V4.22817C27.2737 4.10354 27.2627 4.08521 27.1748 4.06688C26.8778 4.00823 26.8119 4.00456 26.7715 4.04855ZM27.0171 4.36381C27.0171 4.47745 27.1454 4.63141 27.2444 4.63141C27.2847 4.63141 27.3471 4.61308 27.3837 4.59475C27.4827 4.54343 27.5157 4.61675 27.4204 4.6754C27.3691 4.70839 27.3471 4.75971 27.3471 4.85135C27.3471 5.01265 27.3764 5.0603 27.5047 5.08963C27.6293 5.12262 27.6 5.18127 27.457 5.18127C27.3067 5.18127 27.1748 5.36823 27.2334 5.5002C27.2884 5.6175 27.2591 5.65049 27.1711 5.57351C27.0905 5.5002 26.8668 5.49286 26.8045 5.55518C26.7789 5.58084 26.7605 5.6285 26.7605 5.66515C26.7605 5.70181 26.7385 5.73114 26.7092 5.73114C26.6762 5.73114 26.6652 5.70181 26.6799 5.63583C26.6946 5.56251 26.6726 5.51852 26.5919 5.45254C26.4709 5.35356 26.4233 5.34623 26.3206 5.40855C26.2217 5.47087 26.174 5.40489 26.2767 5.3389C26.4123 5.24359 26.361 4.93933 26.2033 4.91734C26.1557 4.91001 26.1264 4.88801 26.1374 4.86968C26.1484 4.84769 26.1923 4.83669 26.2363 4.84402C26.2913 4.85135 26.3463 4.8147 26.4123 4.72305C26.5076 4.60208 26.5113 4.59109 26.4526 4.50677C26.3756 4.38947 26.4489 4.33448 26.5296 4.44812C26.5773 4.5141 26.6102 4.5251 26.7129 4.51044C26.8668 4.48478 26.9438 4.42613 26.9438 4.33448C26.9438 4.29416 26.9622 4.26483 26.9805 4.26483C27.0025 4.26483 27.0171 4.30882 27.0171 4.36381Z" fill="white"/>
<path d="M26.6833 4.723C26.4854 4.82931 26.4634 5.11524 26.6393 5.25454C26.9766 5.51848 27.3652 5.06026 27.0499 4.76699C26.9326 4.65702 26.8263 4.64602 26.6833 4.723ZM26.9253 5.01627C26.9253 5.12624 26.7823 5.11524 26.7676 5.00527C26.7566 4.93195 26.7676 4.92096 26.8409 4.93195C26.8959 4.93929 26.9253 4.96861 26.9253 5.01627Z" fill="white"/>
<path d="M28.4722 5.31336C28.4612 5.33169 28.4429 5.40867 28.4282 5.48565C28.3952 5.65061 28.3439 5.65794 28.2449 5.51131C28.1313 5.34268 28.069 5.34268 27.8234 5.51498C27.5851 5.6836 27.5631 5.74225 27.6768 5.88888C27.7977 6.03918 27.7721 6.07584 27.5704 6.05018C27.3505 6.02452 27.3322 6.04285 27.2808 6.34711C27.2259 6.66603 27.2369 6.68802 27.5081 6.72835C27.6254 6.74667 27.6144 6.81632 27.4751 6.90797C27.4018 6.95929 27.3468 7.02527 27.3468 7.06926C27.3468 7.14258 27.6511 7.56414 27.7061 7.56414C27.7244 7.56414 27.7904 7.52382 27.86 7.4725C27.926 7.42484 27.9957 7.39185 28.0103 7.40285C28.025 7.41018 28.0287 7.50182 28.0177 7.6008C27.9993 7.77309 28.003 7.78409 28.0983 7.82075C28.1533 7.84274 28.2999 7.86107 28.4246 7.8684L28.6482 7.87573L28.6812 7.7181C28.7032 7.63379 28.7325 7.56414 28.7508 7.56414C28.7728 7.56414 28.8388 7.62646 28.9048 7.69978L29.0258 7.83907L29.2677 7.67411C29.5316 7.49449 29.5573 7.43217 29.4363 7.28188C29.3264 7.14258 29.3447 7.12058 29.5463 7.12791C29.6489 7.13525 29.7443 7.12058 29.7626 7.10225C29.7809 7.08393 29.8139 6.95562 29.8359 6.81999C29.8836 6.53406 29.8579 6.46441 29.6966 6.46441C29.6453 6.46441 29.5756 6.44608 29.5463 6.42775C29.5023 6.39476 29.5133 6.3691 29.6306 6.27746C29.7039 6.21514 29.7662 6.13449 29.7662 6.1015C29.7662 6.02818 29.5133 5.66894 29.44 5.63961C29.4107 5.62861 29.33 5.65794 29.2604 5.70926C29.1871 5.76058 29.1174 5.79357 29.1027 5.78258C29.0881 5.77524 29.0844 5.68727 29.0954 5.58829C29.1137 5.43433 29.1064 5.405 29.0441 5.36834C28.9451 5.31702 28.4979 5.27303 28.4722 5.31336ZM28.8425 5.69826C28.8315 5.8339 28.8461 5.85956 28.9708 5.9622L29.1101 6.0795L29.253 5.99519L29.396 5.91454L29.44 5.99153C29.4766 6.06118 29.4657 6.08684 29.3703 6.17481C29.2714 6.26646 29.2604 6.29945 29.2787 6.41676C29.308 6.59638 29.3447 6.64037 29.4986 6.66969C29.5866 6.68802 29.6196 6.71002 29.605 6.74667C29.594 6.776 29.583 6.81999 29.583 6.84198C29.583 6.87131 29.528 6.88231 29.4253 6.87498C29.275 6.86031 29.2604 6.87131 29.1614 7.01428L29.0588 7.16457L29.1357 7.27088C29.2347 7.40285 29.2347 7.42484 29.1431 7.48349C29.0807 7.52015 29.0624 7.51282 28.9891 7.41385C28.9085 7.30754 28.8938 7.30021 28.7252 7.3222C28.5162 7.3442 28.5199 7.3442 28.4869 7.49816C28.4686 7.59713 28.4429 7.62279 28.3586 7.63013C28.2559 7.64479 28.2523 7.64112 28.2779 7.49449C28.2963 7.36619 28.2889 7.33686 28.201 7.25255C28.0543 7.11692 27.9554 7.10225 27.838 7.1939L27.7391 7.27088L27.6841 7.1939C27.6328 7.12058 27.6364 7.10959 27.7464 7.00694C27.8454 6.91163 27.86 6.87864 27.8417 6.77967C27.7941 6.55239 27.7867 6.53773 27.6364 6.51573C27.5301 6.4974 27.4935 6.47541 27.5081 6.43875C27.5228 6.40942 27.5301 6.36543 27.5301 6.33977C27.5301 6.31045 27.5814 6.29578 27.6804 6.29578C27.8124 6.29945 27.8454 6.28112 27.9407 6.16382L28.0507 6.02818L27.97 5.89622C27.8894 5.76791 27.8894 5.76058 27.9554 5.71293C28.0507 5.64328 28.0507 5.64328 28.135 5.77158C28.201 5.87422 28.223 5.88155 28.3623 5.86689C28.5492 5.84856 28.6299 5.78991 28.6299 5.67627C28.6299 5.57363 28.6592 5.54797 28.7655 5.54797C28.8461 5.54797 28.8535 5.55896 28.8425 5.69826Z" fill="white"/>
<path d="M28.3547 6.09417C28.2337 6.14549 28.0834 6.31778 28.0468 6.44975C27.9478 6.80899 28.2851 7.17557 28.6516 7.10592C28.7213 7.09492 28.8349 7.03261 28.9046 6.97395C29.1099 6.79433 29.1429 6.53406 28.9926 6.28479C28.8863 6.11249 28.5563 6.01352 28.3547 6.09417ZM28.6773 6.32511C28.7213 6.3471 28.7763 6.39109 28.8019 6.42409C28.9302 6.59271 28.7726 6.87864 28.5563 6.87864C28.417 6.87864 28.2631 6.73201 28.2631 6.60004C28.2631 6.49374 28.3584 6.3581 28.461 6.31778C28.5673 6.27379 28.5857 6.27379 28.6773 6.32511Z" fill="white"/>
<path d="M26.8227 9.31626C26.7677 9.34926 26.7274 9.38591 26.7347 9.39691C26.7384 9.40791 26.9107 9.75249 27.116 10.1667C28.0984 12.1426 28.564 13.8215 28.6849 15.8523L28.7106 16.2446L27.8455 16.2226L26.9804 16.2042V16.3509V16.4975L27.8675 16.5195C28.355 16.5342 29.1945 16.5452 29.737 16.5452H30.7194V16.3985V16.2519H29.8617H29.0075L28.9819 15.7644C28.9049 14.2907 28.564 12.8097 27.9371 11.2298C27.7282 10.7056 27.0133 9.25028 26.9657 9.25028C26.9437 9.25028 26.8814 9.27961 26.8227 9.31626Z" fill="white"/>
<path d="M1.32348 11.6587L0.843262 12.1645L0.850593 12.3442C0.857925 12.4431 0.879919 12.5311 0.901914 12.5384C0.934906 12.5494 1.61307 11.8896 1.7927 11.6697L1.86601 11.578L2.33523 12.0692C2.63949 12.3881 2.82278 12.5531 2.8521 12.5348C2.87777 12.5201 2.89609 12.4321 2.89609 12.3405C2.89609 12.1755 2.88876 12.1645 2.41588 11.666C2.14461 11.3801 1.90634 11.1564 1.86968 11.1564C1.83302 11.1564 1.59108 11.3801 1.32348 11.6587Z" fill="white"/>
<path d="M1.32348 12.806C0.854259 13.3082 0.843262 13.3266 0.843262 13.4879C0.843262 13.7738 0.909246 13.7408 1.42245 13.2166L1.88801 12.7364L2.3279 13.2019C2.56984 13.4585 2.79345 13.6675 2.82278 13.6675C2.8631 13.6675 2.88143 13.6198 2.88876 13.4915L2.89976 13.3192L2.41221 12.806C2.14461 12.5238 1.89534 12.2928 1.86235 12.2928C1.82935 12.2928 1.58741 12.5238 1.32348 12.806Z" fill="white"/>
<path d="M1.32348 14.023C0.861591 14.5216 0.843262 14.5473 0.843262 14.7012C0.843262 14.9908 0.916577 14.9542 1.42245 14.4189L1.88434 13.9314L2.3499 14.4226C2.76046 14.8552 2.81911 14.9065 2.8741 14.8625C2.90709 14.8332 2.93275 14.7599 2.93275 14.6792C2.93275 14.5582 2.8851 14.4996 2.43421 14.023C2.14095 13.7188 1.91 13.5025 1.86968 13.5025C1.82936 13.5025 1.60941 13.7115 1.32348 14.023Z" fill="white"/>
</svg>
